<?xml version="1.0" encoding="UTF-8" standalone="no"?>
<!DOCTYPE svg PUBLIC "-//W3C//DTD SVG 1.1//EN" "http://www.w3.org/Graphics/SVG/1.1/DTD/svg11.dtd">
<svg width="100%" height="100%" viewBox="0 0 96 100" version="1.1" xmlns="http://www.w3.org/2000/svg" xmlns:xlink="http://www.w3.org/1999/xlink" xml:space="preserve" xmlns:serif="http://www.serif.com/" style="fill-rule:evenodd;clip-rule:evenodd;stroke-linejoin:round;stroke-miterlimit:2;">
    <g transform="matrix(1.49367,0,0,1.49367,-28.0287,-21.6961)">
        <g transform="matrix(0.989321,0,0,0.989321,0.663986,4.19114)">
            <path d="M83.261,22.606L83.261,65.958C83.261,71.42 78.827,75.854 73.365,75.854L28.192,75.854C22.731,75.854 18.296,71.42 18.296,65.958L18.296,22.606C18.296,17.144 22.731,12.71 28.192,12.71L73.365,12.71C78.827,12.71 83.261,17.144 83.261,22.606ZM79.053,22.606C79.053,19.467 76.504,16.918 73.365,16.918L28.192,16.918C25.053,16.918 22.505,19.467 22.505,22.606L22.505,65.958C22.505,69.097 25.053,71.645 28.192,71.645L73.365,71.645C76.504,71.645 79.053,69.097 79.053,65.958L79.053,22.606Z" style="fill:rgb(239,114,49);"/>
        </g>
        <g transform="matrix(0.989321,0,0,0.989321,0.663986,4.19114)">
            <path d="M79.053,22.606C79.053,19.467 76.504,16.918 73.365,16.918L28.192,16.918C25.053,16.918 22.505,19.467 22.505,22.606L22.505,65.958C22.505,69.097 25.053,71.645 28.192,71.645L73.365,71.645C76.504,71.645 79.053,69.097 79.053,65.958L79.053,22.606Z" style="fill:white;"/>
        </g>
        <g transform="matrix(1.16265,0,0,1.16265,-19.5886,-15.3916)">
            <path d="M57.477,77.577C46.54,76.005 38.124,66.587 38.124,55.218C38.124,42.751 48.246,32.629 60.713,32.629C73.181,32.629 83.302,42.751 83.302,55.218C83.302,65.881 75.899,74.828 65.957,77.195L65.863,71.548L57.477,77.577Z" style="fill:rgb(239,114,49);"/>
        </g>
        <path d="M51.082,28.03L70.223,60.713L31.94,60.713L51.082,28.03Z" style="fill:rgb(0,106,173);"/>
        <path d="M44.559,70.564L44.618,65.218L56.761,58.87L56.729,63.702L44.559,70.564Z" style="fill:white;"/>
        <path d="M44.936,62.173L45.267,56.12L56.568,51.155L56.895,56.2L44.936,62.173Z" style="fill:white;"/>
        <path d="M45.488,53.2L46.445,46.179L44.865,46.179L44.837,44.189L47.246,44.189L47.255,38.729L50.145,34.955L51.815,34.959L55.157,39.237L55.454,44.189L56.846,44.189L56.846,46.179L55.276,46.179L55.564,48.715L45.488,53.2ZM49.281,44.081L53.13,44.189L53.191,40.767L51.229,38.52L49.042,40.479L49.281,44.081Z" style="fill:white;"/>
        <path d="M44.708,43.078L44.807,40.507L37.857,40.006L35.232,37.78L29.709,37.78L30.103,40.146L33.726,39.977L34.852,41.705L34.61,43.326L33.054,43.945L29.453,43.978L29.852,46.092L34.871,45.842L37.71,44.013L44.708,43.078Z" style="fill:white;"/>
        <g transform="matrix(-1.00839,0,0,1,102.328,-0.0338767)">
            <path d="M44.708,43.078L44.807,40.507L37.857,40.006L35.232,37.78L29.709,37.78L30.103,40.146L33.726,39.977L34.852,41.705L34.61,43.326L33.054,43.945L29.453,43.978L29.852,46.092L34.871,45.842L37.71,44.013L44.708,43.078Z" style="fill:white;"/>
        </g>
    </g>
</svg>
