<?xml version="1.0" encoding="UTF-8" standalone="no"?>
<!DOCTYPE svg PUBLIC "-//W3C//DTD SVG 1.1//EN" "http://www.w3.org/Graphics/SVG/1.1/DTD/svg11.dtd">
<svg width="100%" height="100%" viewBox="0 0 96 100" version="1.1" xmlns="http://www.w3.org/2000/svg" xmlns:xlink="http://www.w3.org/1999/xlink" xml:space="preserve" xmlns:serif="http://www.serif.com/" style="fill-rule:evenodd;clip-rule:evenodd;stroke-linecap:round;stroke-linejoin:round;stroke-miterlimit:1.5;">
    <g transform="matrix(1,0,0,1,0,2)">
        <g transform="matrix(1.52033,0,0,1.52033,-27.8166,-19.3228)">
            <path d="M77.232,22.606C77.232,19.467 74.684,16.918 71.545,16.918L28.192,16.918C25.053,16.918 22.505,19.467 22.505,22.606L22.505,65.958C22.505,69.097 25.053,71.645 28.192,71.645L71.545,71.645C74.684,71.645 77.232,69.097 77.232,65.958L77.232,22.606Z" style="fill:white;"/>
        </g>
        <g transform="matrix(1.52033,0,0,1.52033,-27.8166,-19.3228)">
            <path d="M81.441,22.606L81.441,65.958C81.441,71.42 77.006,75.854 71.545,75.854L28.192,75.854C22.731,75.854 18.296,71.42 18.296,65.958L18.296,22.606C18.296,17.144 22.731,12.71 28.192,12.71L71.545,12.71C77.006,12.71 81.441,17.144 81.441,22.606ZM77.232,22.606C77.232,19.467 74.684,16.918 71.545,16.918L28.192,16.918C25.053,16.918 22.505,19.467 22.505,22.606L22.505,65.958C22.505,69.097 25.053,71.645 28.192,71.645L71.545,71.645C74.684,71.645 77.232,69.097 77.232,65.958L77.232,22.606Z" style="fill:rgb(239,114,49);"/>
        </g>
        <g transform="matrix(1.6273,0,0,1.6273,-50.7989,-40.6148)">
            <circle cx="60.713" cy="55.218" r="22.589" style="fill:rgb(239,114,49);"/>
        </g>
        <g transform="matrix(1.7045,0,0,1.7045,-32.1116,-23.8056)">
            <circle cx="47" cy="30.815" r="8.825" style="fill:white;"/>
        </g>
        <g transform="matrix(2.18475,0,0,2.18475,-54.6831,-38.6044)">
            <path d="M39.986,36.464C39.105,34.837 38.175,32.903 38.175,30.815C38.175,25.945 42.129,21.99 47,21.99C51.871,21.99 55.825,25.945 55.825,30.815C55.825,32.913 54.933,34.728 54.053,36.452L47.268,49.623L39.986,36.464ZM47,23.93C43.2,23.93 40.115,27.015 40.115,30.815C40.115,34.615 43.2,37.701 47,37.701C50.8,37.701 53.885,34.615 53.885,30.815C53.885,27.015 50.8,23.93 47,23.93Z" style="fill:rgb(0,106,173);stroke:white;stroke-width:0.46px;"/>
        </g>
        <g transform="matrix(1.5047,0,0,2.43572,-24.2255,-79.369)">
            <ellipse cx="48.23" cy="61.888" rx="8.383" ry="2.426" style="fill:rgb(87,199,241);stroke:white;stroke-width:0.49px;"/>
        </g>
        <g transform="matrix(2.61087,0,0,2.61087,-65.1084,-50.2732)">
            <g transform="matrix(24,0,0,24,41.0832,52.8303)">
            </g>
            <text x="27.736px" y="52.83px" style="font-family:'ArialMT', 'Arial', sans-serif;font-size:24px;">1</text>
        </g>
    </g>
</svg>
